#!OML:ASF F:\VICON\USERDATA\INSTALL\rory3\rory3.ASF
:FULLY-SPECIFIED
:DEGREES
64
root 0.8960464106442976 18.52734973094653 31.46697725356204 4.200658712467805 -2.0147769267911064 -3.4358914929500712
lfemur -17.684626107804377 -3.648644483554482 -19.69235281622434
ltibia 22.078192156204505
lfoot 5.99618565620647 -12.766925781033883
ltoes -19.62179960492783
rfemur -1.644213189456595 10.266469885710897 32.06281059936543
rtibia 25.696937581446527
rfoot 25.58897544069062 -0.487858241230934
rtoes 18.784231933344927
lowerback 11.373008766435033 3.018751520072337 3.800287206145593
upperback -0.6862456620292081 4.4006602329879785 0.7273813327444892
thorax -7.432863958115384 1.995942987087599 -2.7303271939751275
lowerneck -17.43635207501159 -5.419162940440003 -2.909401868514843
upperneck 10.355647932948516 -7.447562287535575 5.88677132059341
head 6.547684875110592 -3.3036569253035855 1.6058520629311783
lclavicle -1.5433228754609613e-15 -3.295395271408758e-15
lhumerus -54.483725046417256 -6.033479959408699 90.60585079119451
lradius 122.13725795446015
lwrist 30.849977533697647
lhand -24.79721940121317 2.0628699871514478
lfingers 7.12502
lthumb 2.4533430588055154 32.81000851053499
rclavicle -1.5463957513192164e-15 -3.296556028708492e-15
rhumerus -45.05155672145183 18.8321589806355 -97.51630952084923
rradius 127.69060715000704
rwrist -21.789751885802474
rhand -17.55773761525604 37.56912007110349
rfingers 7.12502
rthumb 8.779597610666112 9.543583045886697
65
root 0.8350073152854897 18.31933723290228 32.63977898519125 3.154048625620784 -0.2388381975084819 -3.4871641915235605
lfemur -16.099512675417376 -5.251638988618246 -19.666673282639202
ltibia 22.415756802307754
lfoot 5.80862787349744 -14.248731672712811
ltoes -15.284758668077421
rfemur -1.832755474913501 8.583391652679834 31.920874976186536
rtibia 28.116508708034264
rfoot 23.00653263670938 0.0370309336998611
rtoes 16.116472508394416
lowerback 12.54308150434389 2.6211540284296717 3.7112744897746124
upperback -0.5765655796128872 4.019821015845494 0.7289872957212087
thorax -7.569278017376979 1.846250620675007 -2.356328098510386
lowerneck -17.454542089660766 -5.375431293756298 -2.9370337767868633
upperneck 10.156813314780399 -7.376014380844245 6.022283275142743
head 6.5047341189680274 -3.2425999738859166 1.6606781205462802
lclavicle -1.5429197894332597e-15 -3.295102569026125e-15
lhumerus -52.71965382172197 -6.663126480948797 90.81406868933092
lradius 121.86320968404607
lwrist 30.993646047379087
lhand -24.849346454690835 2.263829597397567
lfingers 7.12502
lthumb 2.37947487633212 32.97709679971106
rclavicle -1.5466079072293906e-15 -3.2966859943405492e-15
rhumerus -45.76221873897376 18.341632895144855 -98.31246653960048
rradius 127.29769218666361
rwrist -21.708975908506574
rhand -17.763221065524515 37.54876266249038
rfingers 7.12502
rthumb 8.724906166888147 9.578517138734988
66
root 0.7937467703533512 18.14232543505478 33.420761382824914 2.206229217413703 1.0369728005711876 -2.6799278779422506
lfemur -14.922797611368688 -6.408263751409587 -20.548287607789103
ltibia 24.87089108210478
lfoot 4.220258355532369 -15.383967921725333
ltoes -9.561063517139157
rfemur -2.3546370063904796 6.864247816843685 30.59152609804522
rtibia 30.837826252142463
rfoot 19.761707950557557 0.31775857204838776
rtoes 12.289289083204075
lowerback 13.314247658541648 2.3899280771689817 2.6152633452733207
upperback -0.32202133372989317 3.5716756091653177 0.6122632193789003
thorax -7.677398828171647 1.6521645091304222 -1.8463875056182455
lowerneck -17.486442376105728 -5.33224200252612 -2.9410236673035053
upperneck 10.008185535835429 -7.31458685993852 6.140429916121249
head 6.464436540324358 -3.184410888735541 1.7077450204528153
lclavicle -1.5421923446703093e-15 -3.2945742586445522e-15
lhumerus -50.64272215762144 -7.033928321377677 90.99743756040205
lradius 121.48537281679228
lwrist 30.989027014103247
lhand -24.944498787568687 2.472805474832122
lfingers 7.12502
lthumb 2.3000106644159355 33.171510549659686
rclavicle -1.5474178457491463e-15 -3.297300390183223e-15
rhumerus -46.34691150688811 17.678891102328357 -98.92587615646482
rradius 126.3573735379428
rwrist -21.661846686114075
rhand -17.923064703944853 37.58207723161961
rfingers 7.12502
rthumb 8.707342020126676 9.662259222807739
67
root 0.7708118392597733 17.92214386002037 34.622436246256115 1.1907461413698193 2.162542968498459 -2.2295603709836422
lfemur -13.885094125498961 -7.46433939088682 -21.01054429282538
ltibia 29.08791178350191
lfoot 1.155424706383219 -15.282641956694004
ltoes -4.234588123153593
rfemur -3.1635464960450133 4.837285146361984 29.400643953628588
rtibia 34.23445844870137
rfoot 16.176185523715745 0.20477758963554926
rtoes 9.746923029677733
lowerback 14.168871659779828 2.0875000601573466 1.7612431446292345
upperback -0.22993515221433225 3.091230059984108 0.4099861665548651
thorax -7.915352267484915 1.4602328879717672 -1.3190102998766515
lowerneck -17.57498572941796 -5.302599699498533 -2.9243005486652343
upperneck 9.943239938844417 -7.286639873511776 6.249456650450859
head 6.4438093136151915 -3.1392276577553337 1.7425737849859326
lclavicle -1.5421273881652333e-15 -3.294527105232608e-15
lhumerus -48.9356178166863 -7.449861819318561 90.90423135359279
lradius 121.29829238877608
lwrist 30.910510827470056
lhand -25.08003303729986 2.5349669951292397
lfingers 7.12502
lthumb 2.2041227353121036 33.24538643390047
rclavicle -1.548644377333938e-15 -3.2982073841360704e-15
rhumerus -46.91380737929854 16.81163152405241 -99.36401033737451
rradius 124.98304163259107
rwrist -21.61333394425917
rhand -18.064707458029705 37.564750591676656
rfingers 7.12502
rthumb 8.6101350369604 9.60862198007468
68
root 0.7507856153465196 17.750282845261527 35.685923231714796 0.48421209810390486 1.831718463496098 -1.2632009118978802
lfemur -12.390145795914437 -7.660274587840693 -22.209107880398392
ltibia 33.625382841874355
lfoot -2.626597058737339 -13.433674241356517
ltoes 0.012163876592063971
rfemur -4.603631950565235 3.681057654996073 27.40950311939527
rtibia 38.24945716794704
rfoot 12.411111085727665 -0.14938265989570354
rtoes 7.733754380913983
lowerback 14.76768175990299 2.0989846329447412 0.22247160741519267
upperback -0.012251460877692688 2.7642798973783433 0.000704249958817682
thorax -8.265437096459507 1.3417571617088158 -0.7412858112410614
lowerneck -17.74502123172735 -5.241883048925046 -2.851388538106335
upperneck 9.952123638609944 -7.2444406510690555 6.300164404464299
head 6.441907440018225 -3.096448362540344 1.7524129946905103
lclavicle -1.5416392338488891e-15 -3.2941724084941943e-15
lhumerus -47.40566250193283 -8.056294726002879 90.54209564299968
lradius 121.16480552464145
lwrist 30.990681154797937
lhand -25.242620989442987 2.530923457208816
lfingers 7.12502
lthumb 2.0818845003507493 33.267149551763985
rclavicle -1.5485655570497723e-15 -3.298253721134439e-15
rhumerus -47.58749302787112 15.783525323708202 -99.67792121585246
rradius 123.33966363724758
rwrist -21.542211160339342
rhand -18.15641058236008 37.61847193887572
rfingers 7.12502
rthumb 8.538256706886763 9.633689707193353
